<?xml version="1.0" encoding="UTF-8" standalone="no"?>
<!-- Created with Inkscape (http://www.inkscape.org/) -->

<svg
   width="4.3101602mm"
   height="1.8744129mm"
   viewBox="0 0 4.3101602 1.8744129"
   version="1.1"
   id="svg6703"
   inkscape:version="1.1.2 (b8e25be8, 2022-02-05)"
   xmlns:inkscape="http://www.inkscape.org/namespaces/inkscape"
   xmlns:sodipodi="http://sodipodi.sourceforge.net/DTD/sodipodi-0.dtd"
   xmlns="http://www.w3.org/2000/svg"
   xmlns:svg="http://www.w3.org/2000/svg">
  <sodipodi:namedview
     id="namedview6705"
     pagecolor="#505050"
     bordercolor="#eeeeee"
     borderopacity="1"
     inkscape:pageshadow="0"
     inkscape:pageopacity="0"
     inkscape:pagecheckerboard="0"
     inkscape:document-units="px"
     showgrid="false"
     fit-margin-top="0"
     fit-margin-left="0"
     fit-margin-right="0"
     fit-margin-bottom="0"
     inkscape:zoom="25.636871"
     inkscape:cx="6.5335586"
     inkscape:cy="4.2906952"
     inkscape:window-width="1440"
     inkscape:window-height="900"
     inkscape:window-x="0"
     inkscape:window-y="0"
     inkscape:window-maximized="0"
     inkscape:current-layer="layer1" />
  <defs
     id="defs6700" />
  <g
     inkscape:label="Layer 1"
     inkscape:groupmode="layer"
     id="layer1"
     transform="translate(-89.857978,-58.30429)">
    <path
       d="m 93.421821,59.242101 q 0,0.430233 -0.246538,0.684022 -0.246538,0.25258 -0.681605,0.25258 -0.433858,0 -0.680396,-0.25258 -0.246538,-0.253789 -0.246538,-0.684022 0,-0.433858 0.246538,-0.68523 0.246538,-0.252581 0.680396,-0.252581 0.43265,0 0.680396,0.252581 0.247747,0.251372 0.247747,0.68523 z m -0.615137,0.455612 q 0.06768,-0.08218 0.100308,-0.193363 0.03263,-0.112393 0.03263,-0.263457 0,-0.161942 -0.03747,-0.275543 -0.03746,-0.113601 -0.09789,-0.183695 -0.06164,-0.07251 -0.142605,-0.105141 -0.07976,-0.03263 -0.166776,-0.03263 -0.08822,0 -0.166775,0.03142 -0.07735,0.03142 -0.142606,0.103932 -0.06043,0.06768 -0.0991,0.187321 -0.03746,0.118435 -0.03746,0.275542 0,0.160733 0.03625,0.274334 0.03746,0.112392 0.09789,0.183695 0.06043,0.0713 0.141396,0.105141 0.08097,0.03384 0.170402,0.03384 0.08943,0 0.170401,-0.03384 0.08097,-0.03505 0.141396,-0.107558 z"
       id="path3700"
       style="font-weight:bold;font-size:3.88056px;line-height:1.25;font-family:'ヒラギノ丸ゴシック ProN';-inkscape-font-specification:'ヒラギノ丸ゴシック ProN Bold';stroke-width:0.168753"
       inkscape:export-filename="/Users/idapple/Documents/Myfiles/2Quiz/h2o2.png"
       inkscape:export-xdpi="90"
       inkscape:export-ydpi="90" />
    <path
       d="m 94.168128,60.141239 h -0.636737 v -0.133992 q 0.07299,-0.05284 0.145976,-0.112206 0.07353,-0.05937 0.117652,-0.1024 0.06591,-0.06373 0.09369,-0.111116 0.02778,-0.04739 0.02778,-0.09368 0,-0.05556 -0.03595,-0.08552 -0.0354,-0.0305 -0.102401,-0.0305 -0.05011,0 -0.105668,0.0207 -0.05501,0.0207 -0.102401,0.05284 h -0.01743 v -0.180292 q 0.03867,-0.01688 0.11384,-0.03377 0.07571,-0.01688 0.151422,-0.01688 0.152512,0 0.23258,0.06427 0.08007,0.06373 0.08007,0.180836 0,0.0768 -0.03867,0.145975 -0.03813,0.06918 -0.117107,0.142707 -0.04956,0.04576 -0.09968,0.08443 -0.05011,0.03813 -0.07135,0.05338 h 0.364394 z"
       id="path3698"
       style="font-weight:bold;font-size:3.88056px;line-height:1.25;font-family:'ヒラギノ丸ゴシック ProN';-inkscape-font-specification:'ヒラギノ丸ゴシック ProN Bold';stroke-width:0.0760578"
       inkscape:export-filename="/Users/idapple/Documents/Myfiles/2Quiz/h2o2.png"
       inkscape:export-xdpi="90"
       inkscape:export-ydpi="90" />
    <text
       xml:space="preserve"
       style="font-weight:bold;font-size:2.45189px;line-height:1.25;font-family:'ヒラギノ丸ゴシック ProN';-inkscape-font-specification:'ヒラギノ丸ゴシック ProN Bold';stroke-width:0.167173"
       x="89.734665"
       y="60.13282"
       id="text7928"><tspan
         sodipodi:role="line"
         id="tspan7926"
         style="stroke-width:0.167173"
         x="89.734665"
         y="60.13282">C</tspan></text>
  </g>
</svg>
