<?xml version="1.0" encoding="UTF-8" standalone="no"?>
<!-- Created with Inkscape (http://www.inkscape.org/) -->

<svg
   width="4.01792mm"
   height="1.62834mm"
   viewBox="0 0 4.01792 1.62834"
   version="1.1"
   id="svg5"
   inkscape:version="1.1.2 (b8e25be8, 2022-02-05)"
   xmlns:inkscape="http://www.inkscape.org/namespaces/inkscape"
   xmlns:sodipodi="http://sodipodi.sourceforge.net/DTD/sodipodi-0.dtd"
   xmlns="http://www.w3.org/2000/svg"
   xmlns:svg="http://www.w3.org/2000/svg">
  <sodipodi:namedview
     id="namedview7"
     pagecolor="#505050"
     bordercolor="#eeeeee"
     borderopacity="1"
     inkscape:pageshadow="0"
     inkscape:pageopacity="0"
     inkscape:pagecheckerboard="0"
     inkscape:document-units="px"
     showgrid="false"
     fit-margin-top="0"
     fit-margin-left="0"
     fit-margin-right="0"
     fit-margin-bottom="0"
     inkscape:zoom="15.318042"
     inkscape:cx="3.7537434"
     inkscape:cy="-2.7418647"
     inkscape:window-width="1440"
     inkscape:window-height="900"
     inkscape:window-x="0"
     inkscape:window-y="0"
     inkscape:window-maximized="0"
     inkscape:current-layer="layer1"
     inkscape:object-paths="false"
     inkscape:snap-global="false" />
  <defs
     id="defs2" />
  <g
     inkscape:label="Layer 1"
     inkscape:groupmode="layer"
     id="layer1"
     transform="translate(-146.31771,-101.41519)">
    <path
       d="m 147.76825,103.01035 h -0.39638 l -0.67706,-1.09487 v 1.09487 h -0.3771 v -1.59516 h 0.49173 l 0.58171,0.91381 v -0.91381 h 0.3771 z"
       id="path6450"
       style="font-weight:bold;font-size:3.88056px;line-height:1.25;font-family:'ヒラギノ丸ゴシック ProN';-inkscape-font-specification:'ヒラギノ丸ゴシック ProN Bold';stroke-width:0.149591" />
    <path
       d="m 149.44801,103.01035 h -0.41138 v -0.70277 h -0.60742 v 0.70277 h -0.41138 v -1.59516 h 0.41138 v 0.58385 h 0.60742 v -0.58385 h 0.41138 z"
       id="path6452"
       style="font-weight:bold;font-size:3.88056px;line-height:1.25;font-family:'ヒラギノ丸ゴシック ProN';-inkscape-font-specification:'ヒラギノ丸ゴシック ProN Bold';stroke-width:0.149591" />
    <path
       d="m 150.27243,102.61284 q 0.029,0.0248 0.0461,0.0579 0.0171,0.0331 0.0171,0.088 0,0.062 -0.0248,0.11579 -0.0242,0.0538 -0.075,0.0922 -0.0496,0.0372 -0.11698,0.0573 -0.0668,0.0195 -0.16246,0.0195 -0.1093,0 -0.18788,-0.0172 -0.078,-0.0171 -0.12702,-0.0384 v -0.19319 h 0.0231 q 0.0508,0.0307 0.12111,0.0532 0.0709,0.0225 0.12939,0.0225 0.0343,0 0.0744,-0.006 0.0401,-0.006 0.0679,-0.0248 0.0218,-0.0148 0.0349,-0.0355 0.013,-0.0213 0.013,-0.0609 0,-0.0384 -0.0177,-0.0591 -0.0177,-0.0213 -0.0467,-0.0301 -0.029,-0.009 -0.0697,-0.01 -0.0408,-0.001 -0.0756,-0.001 h -0.0484 v -0.15715 h 0.0502 q 0.0461,0 0.0815,-0.003 0.0355,-0.003 0.0603,-0.0136 0.026,-0.0112 0.039,-0.0296 0.013,-0.0189 0.013,-0.0549 0,-0.0266 -0.0136,-0.0425 -0.0136,-0.0165 -0.0342,-0.026 -0.0231,-0.0106 -0.0544,-0.0142 -0.0313,-0.003 -0.0538,-0.003 -0.0555,0 -0.12052,0.0195 -0.065,0.0189 -0.12584,0.0549 h -0.0218 v -0.19083 q 0.0485,-0.0195 0.13176,-0.0372 0.0833,-0.0183 0.16896,-0.0183 0.0833,0 0.14593,0.0148 0.0626,0.0142 0.10339,0.0384 0.0485,0.0289 0.0721,0.0703 0.0237,0.0414 0.0237,0.0969 0,0.0733 -0.0455,0.13116 -0.0455,0.0573 -0.11994,0.0733 v 0.008 q 0.0301,0.004 0.0638,0.0165 0.0337,0.0124 0.0614,0.0361 z"
       id="path6454"
       style="font-weight:bold;font-size:3.88056px;line-height:1.25;font-family:'ヒラギノ丸ゴシック ProN';-inkscape-font-specification:'ヒラギノ丸ゴシック ProN Bold';stroke-width:0.0824963" />
  </g>
</svg>
