<?xml version="1.0" encoding="UTF-8" standalone="no"?>
<!-- Created with Inkscape (http://www.inkscape.org/) -->

<svg
   width="7.5425344mm"
   height="1.874408mm"
   viewBox="0 0 7.5425343 1.874408"
   version="1.1"
   id="svg5"
   inkscape:version="1.1.2 (b8e25be8, 2022-02-05)"
   xmlns:inkscape="http://www.inkscape.org/namespaces/inkscape"
   xmlns:sodipodi="http://sodipodi.sourceforge.net/DTD/sodipodi-0.dtd"
   xmlns="http://www.w3.org/2000/svg"
   xmlns:svg="http://www.w3.org/2000/svg">
  <sodipodi:namedview
     id="namedview7"
     pagecolor="#505050"
     bordercolor="#eeeeee"
     borderopacity="1"
     inkscape:pageshadow="0"
     inkscape:pageopacity="0"
     inkscape:pagecheckerboard="0"
     inkscape:document-units="px"
     showgrid="false"
     fit-margin-top="0"
     fit-margin-left="0"
     fit-margin-right="0"
     fit-margin-bottom="0"
     inkscape:zoom="14.915433"
     inkscape:cx="17.73331"
     inkscape:cy="6.1010633"
     inkscape:window-width="1440"
     inkscape:window-height="900"
     inkscape:window-x="0"
     inkscape:window-y="0"
     inkscape:window-maximized="0"
     inkscape:current-layer="layer1"
     inkscape:object-paths="false" />
  <defs
     id="defs2" />
  <g
     inkscape:label="Layer 1"
     inkscape:groupmode="layer"
     id="layer1"
     transform="translate(-146.05984,-98.922622)">
    <path
       d="m 152.84623,99.860433 q 0,0.430237 -0.24654,0.684027 -0.24653,0.25257 -0.6816,0.25257 -0.43386,0 -0.6804,-0.25257 -0.24654,-0.25379 -0.24654,-0.684027 0,-0.433858 0.24654,-0.68523 0.24654,-0.252581 0.6804,-0.252581 0.43265,0 0.68039,0.252581 0.24775,0.251372 0.24775,0.68523 z m -0.61514,0.455617 q 0.0677,-0.0822 0.10031,-0.19337 0.0326,-0.11239 0.0326,-0.263455 0,-0.161942 -0.0375,-0.275543 -0.0375,-0.113601 -0.0979,-0.183695 -0.0616,-0.07251 -0.1426,-0.105141 -0.0798,-0.03263 -0.16678,-0.03263 -0.0882,0 -0.16677,0.03142 -0.0773,0.03142 -0.14261,0.103932 -0.0604,0.06768 -0.0991,0.187321 -0.0375,0.118435 -0.0375,0.275542 0,0.160729 0.0362,0.274339 0.0375,0.11239 0.0979,0.18369 0.0604,0.0713 0.1414,0.10514 0.081,0.0338 0.1704,0.0338 0.0894,0 0.1704,-0.0338 0.081,-0.035 0.1414,-0.10756 z"
       id="path3700"
       style="font-weight:bold;font-size:3.88056px;line-height:1.25;font-family:'ヒラギノ丸ゴシック ProN';-inkscape-font-specification:'ヒラギノ丸ゴシック ProN Bold';stroke-width:0.168753"
       inkscape:export-filename="/Users/idapple/Documents/Myfiles/2Quiz/h2o2.png"
       inkscape:export-xdpi="90"
       inkscape:export-ydpi="90" />
    <text
       xml:space="preserve"
       style="font-weight:bold;font-size:2.45189px;line-height:1.25;font-family:'ヒラギノ丸ゴシック ProN';-inkscape-font-specification:'ヒラギノ丸ゴシック ProN Bold';stroke-width:0.167173"
       x="149.15907"
       y="100.75115"
       id="text7928"><tspan
         sodipodi:role="line"
         id="tspan7926"
         style="stroke-width:0.167173"
         x="149.15907"
         y="100.75115">C</tspan></text>
    <text
       xml:space="preserve"
       style="font-weight:bold;font-size:2.43403px;line-height:1.25;font-family:'ヒラギノ丸ゴシック ProN';-inkscape-font-specification:'ヒラギノ丸ゴシック ProN Bold';stroke-width:0.165956"
       x="145.93742"
       y="100.74406"
       id="text4357"><tspan
         sodipodi:role="line"
         id="tspan4355"
         style="stroke-width:0.165956"
         x="145.93742"
         y="100.74406">Ca</tspan></text>
    <text
       xml:space="preserve"
       style="font-weight:bold;font-size:1.01655px;line-height:1.25;font-family:'ヒラギノ丸ゴシック ProN';-inkscape-font-specification:'ヒラギノ丸ゴシック ProN Bold';stroke-width:0.0693104"
       x="152.89226"
       y="100.72288"
       id="text5204"><tspan
         sodipodi:role="line"
         id="tspan5202"
         style="stroke-width:0.0693104"
         x="152.89226"
         y="100.72288">2</tspan></text>
  </g>
</svg>
