<?xml version="1.0" encoding="UTF-8" standalone="no"?>
<!-- Created with Inkscape (http://www.inkscape.org/) -->

<svg
   width="5.0063243mm"
   height="1.874416mm"
   viewBox="0 0 5.0063244 1.874416"
   version="1.1"
   id="svg5"
   inkscape:version="1.1.2 (b8e25be8, 2022-02-05)"
   xmlns:inkscape="http://www.inkscape.org/namespaces/inkscape"
   xmlns:sodipodi="http://sodipodi.sourceforge.net/DTD/sodipodi-0.dtd"
   xmlns="http://www.w3.org/2000/svg"
   xmlns:svg="http://www.w3.org/2000/svg">
  <sodipodi:namedview
     id="namedview7"
     pagecolor="#505050"
     bordercolor="#eeeeee"
     borderopacity="1"
     inkscape:pageshadow="0"
     inkscape:pageopacity="0"
     inkscape:pagecheckerboard="0"
     inkscape:document-units="px"
     showgrid="false"
     fit-margin-top="0"
     fit-margin-left="0"
     fit-margin-right="0"
     fit-margin-bottom="0"
     inkscape:zoom="15.318042"
     inkscape:cx="10.804253"
     inkscape:cy="-2.4154523"
     inkscape:window-width="1440"
     inkscape:window-height="900"
     inkscape:window-x="0"
     inkscape:window-y="0"
     inkscape:window-maximized="0"
     inkscape:current-layer="layer1"
     inkscape:object-paths="false"
     inkscape:snap-global="false" />
  <defs
     id="defs2" />
  <g
     inkscape:label="Layer 1"
     inkscape:groupmode="layer"
     id="layer1"
     transform="translate(-145.2208,-101.15202)">
    <text
       xml:space="preserve"
       style="font-weight:bold;font-size:1.19529px;line-height:1.25;font-family:'ヒラギノ丸ゴシック ProN';-inkscape-font-specification:'ヒラギノ丸ゴシック ProN Bold';stroke-width:0.0814964"
       x="149.42462"
       y="103.0241"
       id="text7643"><tspan
         sodipodi:role="line"
         id="tspan7641"
         style="stroke-width:0.0814964"
         x="149.42462"
         y="103.0241">4</tspan></text>
    <g
       id="g8755"
       transform="translate(-0.915451,2.2285762)">
      <path
         d="m 147.74963,100.76039 h -0.46408 v -0.792785 h -0.68523 v 0.792785 h -0.46407 v -1.799482 h 0.46407 v 0.658643 h 0.68523 v -0.658643 h 0.46408 z"
         id="path3696"
         style="font-weight:bold;font-size:3.88056px;line-height:1.25;font-family:'ヒラギノ丸ゴシック ProN';-inkscape-font-specification:'ヒラギノ丸ゴシック ProN Bold';stroke-width:0.168753"
         inkscape:export-filename="/Users/idapple/Documents/Myfiles/2Quiz/h2o2.png"
         inkscape:export-xdpi="90"
         inkscape:export-ydpi="90" />
      <path
         d="m 148.50326,100.76039 h -0.63674 v -0.13399 q 0.073,-0.0528 0.14598,-0.1122 0.0735,-0.0594 0.11765,-0.10241 0.0659,-0.0637 0.0937,-0.11111 0.0278,-0.0474 0.0278,-0.0937 0,-0.0556 -0.036,-0.0855 -0.0354,-0.0305 -0.1024,-0.0305 -0.0501,0 -0.10567,0.0207 -0.055,0.0207 -0.1024,0.0528 h -0.0174 v -0.180293 q 0.0387,-0.01688 0.11384,-0.03377 0.0757,-0.01688 0.15142,-0.01688 0.15251,0 0.23258,0.06427 0.0801,0.06373 0.0801,0.180833 0,0.0768 -0.0387,0.14598 -0.0381,0.0692 -0.1171,0.14271 -0.0496,0.0458 -0.0997,0.0844 -0.0501,0.0381 -0.0713,0.0534 h 0.36439 z"
         id="path3698"
         style="font-weight:bold;font-size:3.88056px;line-height:1.25;font-family:'ヒラギノ丸ゴシック ProN';-inkscape-font-specification:'ヒラギノ丸ゴシック ProN Bold';stroke-width:0.0760578"
         inkscape:export-filename="/Users/idapple/Documents/Myfiles/2Quiz/h2o2.png"
         inkscape:export-xdpi="90"
         inkscape:export-ydpi="90" />
      <path
         d="m 150.36959,99.861255 q 0,0.430235 -0.24654,0.684025 -0.24654,0.25258 -0.68161,0.25258 -0.43385,0 -0.68039,-0.25258 -0.24654,-0.25379 -0.24654,-0.684025 0,-0.433858 0.24654,-0.68523 0.24654,-0.252581 0.68039,-0.252581 0.43265,0 0.6804,0.252581 0.24775,0.251372 0.24775,0.68523 z m -0.61514,0.455615 q 0.0677,-0.0822 0.10031,-0.19337 0.0326,-0.11239 0.0326,-0.263453 0,-0.161942 -0.0375,-0.275543 -0.0375,-0.113601 -0.0979,-0.183695 -0.0616,-0.07251 -0.14261,-0.105141 -0.0798,-0.03263 -0.16677,-0.03263 -0.0882,0 -0.16678,0.03142 -0.0773,0.03142 -0.1426,0.103932 -0.0604,0.06768 -0.0991,0.187321 -0.0375,0.118435 -0.0375,0.275542 0,0.160737 0.0362,0.274337 0.0375,0.11239 0.0979,0.18369 0.0604,0.0713 0.14139,0.10514 0.081,0.0338 0.1704,0.0338 0.0894,0 0.1704,-0.0338 0.081,-0.035 0.1414,-0.10755 z"
         id="path3700"
         style="font-weight:bold;font-size:3.88056px;line-height:1.25;font-family:'ヒラギノ丸ゴシック ProN';-inkscape-font-specification:'ヒラギノ丸ゴシック ProN Bold';stroke-width:0.168753"
         inkscape:export-filename="/Users/idapple/Documents/Myfiles/2Quiz/h2o2.png"
         inkscape:export-xdpi="90"
         inkscape:export-ydpi="90" />
    </g>
    <path
       d="m 151.09369,100.76039 h -0.63674 v -0.13399 q 0.073,-0.0528 0.14598,-0.1122 0.0735,-0.0594 0.11765,-0.10241 0.0659,-0.0637 0.0937,-0.11111 0.0278,-0.0474 0.0278,-0.0937 0,-0.0556 -0.036,-0.0855 -0.0354,-0.0305 -0.1024,-0.0305 -0.0501,0 -0.10567,0.0207 -0.055,0.0207 -0.1024,0.0528 h -0.0174 v -0.180293 q 0.0387,-0.01688 0.11384,-0.03377 0.0757,-0.01688 0.15142,-0.01688 0.15251,0 0.23258,0.06427 0.0801,0.06373 0.0801,0.180833 0,0.0768 -0.0387,0.14598 -0.0381,0.0692 -0.11711,0.14271 -0.0496,0.0458 -0.0997,0.0844 -0.0501,0.0381 -0.0713,0.0534 h 0.3644 z"
       id="path6839"
       style="font-weight:bold;font-size:3.88056px;line-height:1.25;font-family:'ヒラギノ丸ゴシック ProN';-inkscape-font-specification:'ヒラギノ丸ゴシック ProN Bold';stroke-width:0.0760578"
       inkscape:export-filename="/Users/idapple/Documents/Myfiles/2Quiz/h2o2.png"
       inkscape:export-xdpi="90"
       inkscape:export-ydpi="90" />
    <g
       inkscape:label="Layer 1"
       id="layer1-3"
       transform="translate(-1.0952231,-2.4518932)">
      <path
         d="m 152.84623,99.860433 q 0,0.430237 -0.24654,0.684027 -0.24653,0.25257 -0.6816,0.25257 -0.43386,0 -0.6804,-0.25257 -0.24654,-0.25379 -0.24654,-0.684027 0,-0.433858 0.24654,-0.68523 0.24654,-0.252581 0.6804,-0.252581 0.43265,0 0.68039,0.252581 0.24775,0.251372 0.24775,0.68523 z m -0.61514,0.455617 q 0.0677,-0.0822 0.10031,-0.19337 0.0326,-0.11239 0.0326,-0.263455 0,-0.161942 -0.0375,-0.275543 -0.0375,-0.113601 -0.0979,-0.183695 -0.0616,-0.07251 -0.1426,-0.105141 -0.0798,-0.03263 -0.16678,-0.03263 -0.0882,0 -0.16677,0.03142 -0.0773,0.03142 -0.14261,0.103932 -0.0604,0.06768 -0.0991,0.187321 -0.0375,0.118435 -0.0375,0.275542 0,0.160729 0.0362,0.274339 0.0375,0.11239 0.0979,0.18369 0.0604,0.0713 0.1414,0.10514 0.081,0.0338 0.1704,0.0338 0.0894,0 0.1704,-0.0338 0.081,-0.035 0.1414,-0.10756 z"
         id="path3700-0"
         style="font-weight:bold;font-size:3.88056px;line-height:1.25;font-family:'ヒラギノ丸ゴシック ProN';-inkscape-font-specification:'ヒラギノ丸ゴシック ProN Bold';stroke-width:0.168753"
         inkscape:export-filename="/Users/idapple/Documents/Myfiles/2Quiz/h2o2.png"
         inkscape:export-xdpi="90"
         inkscape:export-ydpi="90" />
      <text
         xml:space="preserve"
         style="font-weight:bold;font-size:1.14399px;line-height:1.25;font-family:'ヒラギノ丸ゴシック ProN';-inkscape-font-specification:'ヒラギノ丸ゴシック ProN Bold';stroke-width:0.0779989"
         x="152.86783"
         y="100.76201"
         id="text3497"><tspan
           sodipodi:role="line"
           id="tspan3495"
           style="stroke-width:0.0779989"
           x="152.86783"
           y="100.76201">3</tspan></text>
      <text
         xml:space="preserve"
         style="font-weight:bold;font-size:2.45189px;line-height:1.25;font-family:'ヒラギノ丸ゴシック ProN';-inkscape-font-specification:'ヒラギノ丸ゴシック ProN Bold';stroke-width:0.167173"
         x="149.15907"
         y="100.75115"
         id="text7928"><tspan
           sodipodi:role="line"
           id="tspan7926"
           style="stroke-width:0.167173"
           x="149.15907"
           y="100.75115">C</tspan></text>
      <text
         xml:space="preserve"
         style="font-weight:bold;font-size:2.43403px;line-height:1.25;font-family:'ヒラギノ丸ゴシック ProN';-inkscape-font-specification:'ヒラギノ丸ゴシック ProN Bold';stroke-width:0.165956"
         x="145.93742"
         y="100.74406"
         id="text4357"><tspan
           sodipodi:role="line"
           id="tspan4355"
           style="stroke-width:0.165956"
           x="145.93742"
           y="100.74406">Ca</tspan></text>
    </g>
  </g>
</svg>
