<?xml version="1.0" encoding="UTF-8" standalone="no"?>
<!-- Created with Inkscape (http://www.inkscape.org/) -->

<svg
   width="1.85508mm"
   height="1.874416mm"
   viewBox="0 0 1.85508 1.874416"
   version="1.1"
   id="svg5"
   inkscape:version="1.1.2 (b8e25be8, 2022-02-05)"
   xmlns:inkscape="http://www.inkscape.org/namespaces/inkscape"
   xmlns:sodipodi="http://sodipodi.sourceforge.net/DTD/sodipodi-0.dtd"
   xmlns="http://www.w3.org/2000/svg"
   xmlns:svg="http://www.w3.org/2000/svg">
  <sodipodi:namedview
     id="namedview7"
     pagecolor="#505050"
     bordercolor="#eeeeee"
     borderopacity="1"
     inkscape:pageshadow="0"
     inkscape:pageopacity="0"
     inkscape:pagecheckerboard="0"
     inkscape:document-units="px"
     showgrid="false"
     fit-margin-top="0"
     fit-margin-left="0"
     fit-margin-right="0"
     fit-margin-bottom="0"
     inkscape:zoom="29.056666"
     inkscape:cx="3.940576"
     inkscape:cy="6.9863487"
     inkscape:window-width="1440"
     inkscape:window-height="900"
     inkscape:window-x="0"
     inkscape:window-y="0"
     inkscape:window-maximized="0"
     inkscape:current-layer="layer1" />
  <defs
     id="defs2" />
  <g
     inkscape:label="Layer 1"
     inkscape:groupmode="layer"
     id="layer1"
     transform="translate(-148.85143,-99.805194)">
    <path
       d="m 150.70651,100.743 q 0,0.43024 -0.24654,0.68403 -0.24654,0.25258 -0.68161,0.25258 -0.43386,0 -0.68039,-0.25258 -0.24654,-0.25379 -0.24654,-0.68403 0,-0.43385 0.24654,-0.68523 0.24653,-0.252576 0.68039,-0.252576 0.43265,0 0.6804,0.252576 0.24775,0.25138 0.24775,0.68523 z m -0.61514,0.45562 q 0.0677,-0.0822 0.10031,-0.19337 0.0326,-0.11239 0.0326,-0.26345 0,-0.16195 -0.0375,-0.27555 -0.0375,-0.1136 -0.0979,-0.18369 -0.0616,-0.0725 -0.14261,-0.10514 -0.0798,-0.0326 -0.16677,-0.0326 -0.0882,0 -0.16678,0.0314 -0.0773,0.0314 -0.1426,0.10393 -0.0604,0.0677 -0.0991,0.18732 -0.0375,0.11844 -0.0375,0.27554 0,0.16074 0.0362,0.27434 0.0375,0.11239 0.0979,0.18369 0.0604,0.0713 0.1414,0.10514 0.081,0.0338 0.1704,0.0338 0.0894,0 0.1704,-0.0338 0.081,-0.035 0.1414,-0.10756 z"
       id="path3700"
       style="font-weight:bold;font-size:3.88056px;line-height:1.25;font-family:'ヒラギノ丸ゴシック ProN';-inkscape-font-specification:'ヒラギノ丸ゴシック ProN Bold';stroke-width:0.168753"
       inkscape:export-filename="/Users/idapple/Documents/Myfiles/2Quiz/h2o2.png"
       inkscape:export-xdpi="90"
       inkscape:export-ydpi="90" />
  </g>
</svg>
