<?xml version="1.0" encoding="UTF-8" standalone="no"?>
<!-- Created with Inkscape (http://www.inkscape.org/) -->

<svg
   width="7.9259591mm"
   height="3.0032654mm"
   viewBox="0 0 7.9259597 3.0032653"
   version="1.1"
   id="svg5"
   inkscape:version="1.1.2 (b8e25be8, 2022-02-05)"
   xmlns:inkscape="http://www.inkscape.org/namespaces/inkscape"
   xmlns:sodipodi="http://sodipodi.sourceforge.net/DTD/sodipodi-0.dtd"
   xmlns="http://www.w3.org/2000/svg"
   xmlns:svg="http://www.w3.org/2000/svg">
  <sodipodi:namedview
     id="namedview7"
     pagecolor="#505050"
     bordercolor="#eeeeee"
     borderopacity="1"
     inkscape:pageshadow="0"
     inkscape:pageopacity="0"
     inkscape:pagecheckerboard="0"
     inkscape:document-units="px"
     showgrid="false"
     fit-margin-top="0"
     fit-margin-left="0"
     fit-margin-right="0"
     fit-margin-bottom="0"
     inkscape:zoom="13.724727"
     inkscape:cx="14.608669"
     inkscape:cy="-1.0929179"
     inkscape:window-width="1440"
     inkscape:window-height="900"
     inkscape:window-x="0"
     inkscape:window-y="0"
     inkscape:window-maximized="0"
     inkscape:current-layer="layer1"
     inkscape:object-paths="false"
     inkscape:snap-global="false" />
  <defs
     id="defs2" />
  <g
     inkscape:label="Layer 1"
     inkscape:groupmode="layer"
     id="layer1"
     transform="translate(-152.47987,-104.54457)">
    <g
       id="g15320">
      <text
         xml:space="preserve"
         style="font-weight:bold;font-size:3.88056px;line-height:1.25;font-family:'ヒラギノ丸ゴシック ProN';-inkscape-font-specification:'ヒラギノ丸ゴシック ProN Bold';stroke-width:0.264583"
         x="152.11986"
         y="107.49288"
         id="text9354"><tspan
           sodipodi:role="line"
           id="tspan9352"
           style="stroke-width:0.264583"
           x="152.11986"
           y="107.49288"
           dx="0 -0.22704932 -0.061922532">HCl</tspan></text>
      <path
         d="m 160.40577,107.54783 h -1.30067 v -0.2737 q 0.14911,-0.10786 0.29819,-0.2292 0.15014,-0.12133 0.24033,-0.20919 0.13461,-0.13012 0.1914,-0.22697 0.0568,-0.0968 0.0568,-0.1914 0,-0.11357 -0.0735,-0.17465 -0.0723,-0.0623 -0.20918,-0.0623 -0.10234,0 -0.21585,0.0423 -0.11235,0.0423 -0.20917,0.10786 h -0.0356 v -0.36828 q 0.0791,-0.0345 0.23255,-0.069 0.15463,-0.0345 0.3093,-0.0345 0.31154,0 0.4751,0.13135 0.16362,0.13012 0.16362,0.36938 0,0.15688 -0.0791,0.2982 -0.0778,0.14135 -0.23922,0.29151 -0.10132,0.0936 -0.20365,0.17241 -0.10234,0.0778 -0.14565,0.10908 h 0.74436 z"
         id="path6839-6"
         style="font-weight:bold;font-size:3.88056px;line-height:1.25;font-family:'ヒラギノ丸ゴシック ProN';-inkscape-font-specification:'ヒラギノ丸ゴシック ProN Bold';stroke-width:0.155364"
         inkscape:export-filename="/Users/idapple/Documents/Myfiles/2Quiz/h2o2.png"
         inkscape:export-xdpi="90"
         inkscape:export-ydpi="90" />
    </g>
  </g>
</svg>
