<?xml version="1.0" encoding="UTF-8" standalone="no"?>
<!-- Created with Inkscape (http://www.inkscape.org/) -->

<svg
   width="5.1469698mm"
   height="1.7524469mm"
   viewBox="0 0 5.1469699 1.7524469"
   version="1.1"
   id="svg5"
   inkscape:version="1.1.2 (b8e25be8, 2022-02-05)"
   xmlns:inkscape="http://www.inkscape.org/namespaces/inkscape"
   xmlns:sodipodi="http://sodipodi.sourceforge.net/DTD/sodipodi-0.dtd"
   xmlns="http://www.w3.org/2000/svg"
   xmlns:svg="http://www.w3.org/2000/svg">
  <sodipodi:namedview
     id="namedview7"
     pagecolor="#505050"
     bordercolor="#eeeeee"
     borderopacity="1"
     inkscape:pageshadow="0"
     inkscape:pageopacity="0"
     inkscape:pagecheckerboard="0"
     inkscape:document-units="px"
     showgrid="false"
     fit-margin-top="0"
     fit-margin-left="0"
     fit-margin-right="0"
     fit-margin-bottom="0"
     inkscape:zoom="15.318042"
     inkscape:cx="16.026852"
     inkscape:cy="-0.13056499"
     inkscape:window-width="1440"
     inkscape:window-height="900"
     inkscape:window-x="0"
     inkscape:window-y="0"
     inkscape:window-maximized="0"
     inkscape:current-layer="layer1"
     inkscape:object-paths="false"
     inkscape:snap-global="false" />
  <defs
     id="defs2" />
  <g
     inkscape:label="Layer 1"
     inkscape:groupmode="layer"
     id="layer1"
     transform="translate(-144.24944,-101.27149)">
    <text
       xml:space="preserve"
       style="font-weight:bold;font-size:1.30489px;line-height:1.25;font-family:'ヒラギノ丸ゴシック ProN';-inkscape-font-specification:'ヒラギノ丸ゴシック ProN Bold';stroke-width:0.0889693"
       x="149.3429"
       y="104.60889"
       id="text7643"><tspan
         sodipodi:role="line"
         id="tspan7641"
         style="stroke-width:0.0889693"
         x="149.3429"
         y="104.60889">4</tspan></text>
    <g
       id="g8755"
       transform="translate(4.3699831,2.3322122)">
      <path
         d="m 147.74963,100.76039 h -0.46408 v -0.792785 h -0.68523 v 0.792785 h -0.46407 v -1.799482 h 0.46407 v 0.658643 h 0.68523 v -0.658643 h 0.46408 z"
         id="path3696"
         style="font-weight:bold;font-size:3.88056px;line-height:1.25;font-family:'ヒラギノ丸ゴシック ProN';-inkscape-font-specification:'ヒラギノ丸ゴシック ProN Bold';stroke-width:0.168753"
         inkscape:export-filename="/Users/idapple/Documents/Myfiles/2Quiz/h2o2.png"
         inkscape:export-xdpi="90"
         inkscape:export-ydpi="90" />
      <path
         d="m 148.50326,100.76039 h -0.63674 v -0.13399 q 0.073,-0.0528 0.14598,-0.1122 0.0735,-0.0594 0.11765,-0.10241 0.0659,-0.0637 0.0937,-0.11111 0.0278,-0.0474 0.0278,-0.0937 0,-0.0556 -0.036,-0.0855 -0.0354,-0.0305 -0.1024,-0.0305 -0.0501,0 -0.10567,0.0207 -0.055,0.0207 -0.1024,0.0528 h -0.0174 v -0.180293 q 0.0387,-0.01688 0.11384,-0.03377 0.0757,-0.01688 0.15142,-0.01688 0.15251,0 0.23258,0.06427 0.0801,0.06373 0.0801,0.180833 0,0.0768 -0.0387,0.14598 -0.0381,0.0692 -0.1171,0.14271 -0.0496,0.0458 -0.0997,0.0844 -0.0501,0.0381 -0.0713,0.0534 h 0.36439 z"
         id="path3698"
         style="font-weight:bold;font-size:3.88056px;line-height:1.25;font-family:'ヒラギノ丸ゴシック ProN';-inkscape-font-specification:'ヒラギノ丸ゴシック ProN Bold';stroke-width:0.0760578"
         inkscape:export-filename="/Users/idapple/Documents/Myfiles/2Quiz/h2o2.png"
         inkscape:export-xdpi="90"
         inkscape:export-ydpi="90" />
      <path
         d="m 150.36959,99.861255 q 0,0.430235 -0.24654,0.684025 -0.24654,0.25258 -0.68161,0.25258 -0.43385,0 -0.68039,-0.25258 -0.24654,-0.25379 -0.24654,-0.684025 0,-0.433858 0.24654,-0.68523 0.24654,-0.252581 0.68039,-0.252581 0.43265,0 0.6804,0.252581 0.24775,0.251372 0.24775,0.68523 z m -0.61514,0.455615 q 0.0677,-0.0822 0.10031,-0.19337 0.0326,-0.11239 0.0326,-0.263453 0,-0.161942 -0.0375,-0.275543 -0.0375,-0.113601 -0.0979,-0.183695 -0.0616,-0.07251 -0.14261,-0.105141 -0.0798,-0.03263 -0.16677,-0.03263 -0.0882,0 -0.16678,0.03142 -0.0773,0.03142 -0.1426,0.103932 -0.0604,0.06768 -0.0991,0.187321 -0.0375,0.118435 -0.0375,0.275542 0,0.160737 0.0362,0.274337 0.0375,0.11239 0.0979,0.18369 0.0604,0.0713 0.14139,0.10514 0.081,0.0338 0.1704,0.0338 0.0894,0 0.1704,-0.0338 0.081,-0.035 0.1414,-0.10755 z"
         id="path3700"
         style="font-weight:bold;font-size:3.88056px;line-height:1.25;font-family:'ヒラギノ丸ゴシック ProN';-inkscape-font-specification:'ヒラギノ丸ゴシック ProN Bold';stroke-width:0.168753"
         inkscape:export-filename="/Users/idapple/Documents/Myfiles/2Quiz/h2o2.png"
         inkscape:export-xdpi="90"
         inkscape:export-ydpi="90" />
    </g>
    <path
       d="m 151.09369,100.76039 h -0.63674 v -0.13399 q 0.073,-0.0528 0.14598,-0.1122 0.0735,-0.0594 0.11765,-0.10241 0.0659,-0.0637 0.0937,-0.11111 0.0278,-0.0474 0.0278,-0.0937 0,-0.0556 -0.036,-0.0855 -0.0354,-0.0305 -0.1024,-0.0305 -0.0501,0 -0.10567,0.0207 -0.055,0.0207 -0.1024,0.0528 h -0.0174 v -0.180293 q 0.0387,-0.01688 0.11384,-0.03377 0.0757,-0.01688 0.15142,-0.01688 0.15251,0 0.23258,0.06427 0.0801,0.06373 0.0801,0.180833 0,0.0768 -0.0387,0.14598 -0.0381,0.0692 -0.11711,0.14271 -0.0496,0.0458 -0.0997,0.0844 -0.0501,0.0381 -0.0713,0.0534 h 0.3644 z"
       id="path6839"
       style="font-weight:bold;font-size:3.88056px;line-height:1.25;font-family:'ヒラギノ丸ゴシック ProN';-inkscape-font-specification:'ヒラギノ丸ゴシック ProN Bold';stroke-width:0.0760578"
       inkscape:export-filename="/Users/idapple/Documents/Myfiles/2Quiz/h2o2.png"
       inkscape:export-xdpi="90"
       inkscape:export-ydpi="90" />
    <path
       d="m 151.75101,97.40854 q 0,0.430237 -0.24654,0.684027 -0.24653,0.25257 -0.6816,0.25257 -0.43386,0 -0.6804,-0.25257 -0.24654,-0.25379 -0.24654,-0.684027 0,-0.433858 0.24654,-0.68523 0.24654,-0.252581 0.6804,-0.252581 0.43265,0 0.68039,0.252581 0.24775,0.251372 0.24775,0.68523 z m -0.61514,0.455617 q 0.0677,-0.0822 0.10031,-0.19337 0.0326,-0.11239 0.0326,-0.263455 0,-0.161942 -0.0375,-0.275543 -0.0375,-0.113601 -0.0979,-0.183695 -0.0616,-0.07251 -0.1426,-0.105141 -0.0798,-0.03263 -0.16678,-0.03263 -0.0882,0 -0.16677,0.03142 -0.0773,0.03142 -0.14261,0.103932 -0.0604,0.06768 -0.0991,0.187321 -0.0375,0.118435 -0.0375,0.275542 0,0.160729 0.0362,0.274339 0.0375,0.11239 0.0979,0.18369 0.0604,0.0713 0.1414,0.10514 0.081,0.0338 0.1704,0.0338 0.0894,0 0.1704,-0.0338 0.081,-0.035 0.1414,-0.10756 z"
       id="path3700-0"
       style="font-weight:bold;font-size:3.88056px;line-height:1.25;font-family:'ヒラギノ丸ゴシック ProN';-inkscape-font-specification:'ヒラギノ丸ゴシック ProN Bold';stroke-width:0.168753"
       inkscape:export-filename="/Users/idapple/Documents/Myfiles/2Quiz/h2o2.png"
       inkscape:export-xdpi="90"
       inkscape:export-ydpi="90" />
    <text
       xml:space="preserve"
       style="font-weight:bold;font-size:2.45189px;line-height:1.25;font-family:'ヒラギノ丸ゴシック ProN';-inkscape-font-specification:'ヒラギノ丸ゴシック ProN Bold';stroke-width:0.167173"
       x="148.06384"
       y="98.299255"
       id="text7928"><tspan
         sodipodi:role="line"
         id="tspan7926"
         style="stroke-width:0.167173"
         x="148.06384"
         y="98.299255">C</tspan></text>
    <text
       xml:space="preserve"
       style="font-weight:bold;font-size:2.43403px;line-height:1.25;font-family:'ヒラギノ丸ゴシック ProN';-inkscape-font-specification:'ヒラギノ丸ゴシック ProN Bold';stroke-width:0.165956"
       x="144.84219"
       y="98.29216"
       id="text4357"><tspan
         sodipodi:role="line"
         id="tspan4355"
         style="stroke-width:0.165956"
         x="144.84219"
         y="98.29216">Ca</tspan></text>
    <path
       d="m 150.16486,100.52001 h -0.63674 v -0.13399 q 0.073,-0.0528 0.14598,-0.11221 0.0735,-0.0594 0.11765,-0.1024 0.0659,-0.0637 0.0937,-0.11111 0.0278,-0.0474 0.0278,-0.09368 0,-0.05556 -0.0359,-0.08552 -0.0354,-0.0305 -0.1024,-0.0305 -0.0501,0 -0.10567,0.0207 -0.055,0.0207 -0.1024,0.05284 h -0.0174 v -0.180292 q 0.0387,-0.01688 0.11384,-0.03377 0.0757,-0.01688 0.15142,-0.01688 0.15252,0 0.23258,0.06427 0.0801,0.06373 0.0801,0.180836 0,0.0768 -0.0387,0.145966 -0.0381,0.0692 -0.1171,0.14271 -0.0496,0.0458 -0.0997,0.0844 -0.0501,0.0381 -0.0713,0.0534 h 0.36439 z"
       id="path3698-8"
       style="font-weight:bold;font-size:3.88056px;line-height:1.25;font-family:'ヒラギノ丸ゴシック ProN';-inkscape-font-specification:'ヒラギノ丸ゴシック ProN Bold';stroke-width:0.0760578"
       inkscape:export-filename="/Users/idapple/Documents/Myfiles/2Quiz/h2o2.png"
       inkscape:export-xdpi="90"
       inkscape:export-ydpi="90" />
    <g
       id="g9678"
       transform="translate(0,2.5274486)">
      <path
         d="m 146.01319,100.46147 h -0.43162 v -1.126499 l -0.31185,0.731039 h -0.29942 l -0.31184,-0.731039 v 1.126499 h -0.40902 v -1.6824 h 0.50393 l 0.37851,0.844022 0.37738,-0.844022 h 0.50393 z"
         id="path6572"
         style="font-weight:bold;font-size:3.88056px;line-height:1.25;font-family:'ヒラギノ丸ゴシック ProN';-inkscape-font-specification:'ヒラギノ丸ゴシック ProN Bold';stroke-width:0.157772" />
      <path
         d="m 147.50592,100.46147 h -0.40902 v -0.629349 q 0,-0.07683 -0.008,-0.152535 -0.008,-0.07683 -0.0271,-0.112989 -0.0226,-0.04181 -0.0667,-0.06101 -0.0429,-0.01921 -0.12089,-0.01921 -0.0554,0 -0.11299,0.01808 -0.0565,0.01808 -0.12316,0.05762 v 0.899383 h -0.40676 v -1.268855 h 0.40676 v 0.140106 q 0.10847,-0.08474 0.2079,-0.129937 0.10056,-0.04519 0.22259,-0.04519 0.20564,0 0.32088,0.119768 0.11638,0.119768 0.11638,0.358173 z"
         id="path6574"
         style="font-weight:bold;font-size:3.88056px;line-height:1.25;font-family:'ヒラギノ丸ゴシック ProN';-inkscape-font-specification:'ヒラギノ丸ゴシック ProN Bold';stroke-width:0.157772" />
      <path
         d="m 149.39641,99.620832 q 0,0.402238 -0.2305,0.639518 -0.2305,0.23614 -0.63725,0.23614 -0.40563,0 -0.63613,-0.23614 -0.23049,-0.23728 -0.23049,-0.639518 0,-0.405628 0.23049,-0.640643 0.2305,-0.236146 0.63613,-0.236146 0.40449,0 0.63612,0.236146 0.23163,0.235015 0.23163,0.640643 z m -0.57511,0.425968 q 0.0633,-0.07683 0.0938,-0.180783 0.0305,-0.105079 0.0305,-0.246315 0,-0.151404 -0.035,-0.257613 -0.035,-0.106209 -0.0915,-0.171743 -0.0576,-0.06779 -0.13333,-0.0983 -0.0746,-0.03051 -0.15592,-0.03051 -0.0825,0 -0.15593,0.02937 -0.0723,0.02938 -0.13332,0.09717 -0.0565,0.06327 -0.0927,0.175132 -0.035,0.110728 -0.035,0.257614 0,0.150274 0.0339,0.256483 0.035,0.105079 0.0915,0.171745 0.0565,0.0667 0.13219,0.0983 0.0757,0.0316 0.15932,0.0316 0.0836,0 0.15931,-0.0316 0.0757,-0.0328 0.1322,-0.10056 z"
         id="path6576"
         style="font-weight:bold;font-size:3.88056px;line-height:1.25;font-family:'ヒラギノ丸ゴシック ProN';-inkscape-font-specification:'ヒラギノ丸ゴシック ProN Bold';stroke-width:0.157772" />
    </g>
    <path
       d="m 146.21527,100.86921 h -0.39638 l -0.67706,-1.094867 v 1.094867 h -0.3771 v -1.595157 h 0.49173 l 0.58171,0.913807 v -0.913807 h 0.3771 z"
       id="path6450"
       style="font-weight:bold;font-size:3.88056px;line-height:1.25;font-family:'ヒラギノ丸ゴシック ProN';-inkscape-font-specification:'ヒラギノ丸ゴシック ProN Bold';stroke-width:0.149591" />
    <path
       d="m 147.89503,100.86921 h -0.41138 v -0.70277 h -0.60742 v 0.70277 h -0.41138 v -1.595157 h 0.41138 v 0.58385 h 0.60742 v -0.58385 h 0.41138 z"
       id="path6452"
       style="font-weight:bold;font-size:3.88056px;line-height:1.25;font-family:'ヒラギノ丸ゴシック ProN';-inkscape-font-specification:'ヒラギノ丸ゴシック ProN Bold';stroke-width:0.149591" />
  </g>
</svg>
