<?xml version="1.0" encoding="UTF-8" standalone="no"?>
<!-- Created with Inkscape (http://www.inkscape.org/) -->

<svg
   width="5.915432mm"
   height="1.7759669mm"
   viewBox="0 0 5.915432 1.7759669"
   version="1.1"
   id="svg5"
   inkscape:version="1.1.2 (b8e25be8, 2022-02-05)"
   sodipodi:docname="h2o2.svg"
   xmlns:inkscape="http://www.inkscape.org/namespaces/inkscape"
   xmlns:sodipodi="http://sodipodi.sourceforge.net/DTD/sodipodi-0.dtd"
   xmlns="http://www.w3.org/2000/svg"
   xmlns:svg="http://www.w3.org/2000/svg">
  <sodipodi:namedview
     id="namedview7"
     pagecolor="#505050"
     bordercolor="#eeeeee"
     borderopacity="1"
     inkscape:pageshadow="0"
     inkscape:pageopacity="0"
     inkscape:pagecheckerboard="0"
     inkscape:document-units="px"
     showgrid="false"
     showguides="false"
     fit-margin-top="0"
     fit-margin-left="0"
     fit-margin-right="0"
     fit-margin-bottom="0"
     inkscape:zoom="24.001621"
     inkscape:cx="10.561787"
     inkscape:cy="7.2078465"
     inkscape:window-width="1440"
     inkscape:window-height="900"
     inkscape:window-x="0"
     inkscape:window-y="0"
     inkscape:window-maximized="0"
     inkscape:current-layer="layer1" />
  <defs
     id="defs2" />
  <g
     inkscape:label="Layer 1"
     inkscape:groupmode="layer"
     id="layer1"
     transform="translate(-28.96049,-80.340875)">
    <path
       d="M 34.875912,82.116842 H 34.239175 V 81.98285 q 0.07299,-0.05284 0.145976,-0.112206 0.07353,-0.05937 0.117652,-0.1024 0.06591,-0.06373 0.09369,-0.111116 0.02778,-0.04739 0.02778,-0.09368 0,-0.05556 -0.03595,-0.08552 -0.0354,-0.0305 -0.102401,-0.0305 -0.05011,0 -0.105668,0.0207 -0.05501,0.0207 -0.102401,0.05284 h -0.01743 v -0.180292 q 0.03867,-0.01688 0.11384,-0.03377 0.07571,-0.01688 0.151422,-0.01688 0.152512,0 0.23258,0.06427 0.08007,0.06373 0.08007,0.180836 0,0.0768 -0.03867,0.145975 -0.03813,0.06918 -0.117107,0.142707 -0.04956,0.04576 -0.09968,0.08443 -0.05011,0.03813 -0.07135,0.05338 h 0.364394 z"
       id="path3698"
       style="font-weight:bold;font-size:3.88056px;line-height:1.25;font-family:'ヒラギノ丸ゴシック ProN';-inkscape-font-specification:'ヒラギノ丸ゴシック ProN Bold';stroke-width:0.0760578"
       inkscape:export-filename="/Users/idapple/Documents/Myfiles/2Quiz/h2o2.png"
       inkscape:export-xdpi="90"
       inkscape:export-ydpi="90" />
    <path
       d="m 30.724238,82.058297 h -0.431615 v -1.126494 l -0.311849,0.731035 h -0.299419 l -0.311847,-0.731035 v 1.126494 H 28.96049 v -1.682395 h 0.503928 l 0.378511,0.844022 0.377381,-0.844022 h 0.503928 z"
       id="path6572"
       style="font-weight:bold;font-size:3.88056px;line-height:1.25;font-family:'ヒラギノ丸ゴシック ProN';-inkscape-font-specification:'ヒラギノ丸ゴシック ProN Bold';stroke-width:0.157772" />
    <path
       d="m 32.216972,82.058297 h -0.409017 v -0.629344 q 0,-0.07683 -0.0079,-0.152535 -0.0079,-0.07683 -0.02711,-0.112989 -0.0226,-0.04181 -0.06666,-0.06101 -0.04293,-0.01921 -0.120897,-0.01921 -0.05537,0 -0.112989,0.01808 -0.05649,0.01808 -0.123157,0.05762 v 0.899387 h -0.406758 v -1.268859 h 0.406758 v 0.140106 q 0.108469,-0.08474 0.207898,-0.129937 0.10056,-0.04519 0.222587,-0.04519 0.205639,0 0.320887,0.119768 0.116378,0.119768 0.116378,0.358173 z"
       id="path6574"
       style="font-weight:bold;font-size:3.88056px;line-height:1.25;font-family:'ヒラギノ丸ゴシック ProN';-inkscape-font-specification:'ヒラギノ丸ゴシック ProN Bold';stroke-width:0.157772" />
    <path
       d="m 34.107456,81.217664 q 0,0.402239 -0.230496,0.639514 -0.230496,0.236146 -0.637254,0.236146 -0.405628,0 -0.636124,-0.236146 -0.230496,-0.237275 -0.230496,-0.639514 0,-0.405628 0.230496,-0.640643 0.230496,-0.236146 0.636124,-0.236146 0.404498,0 0.636124,0.236146 0.231626,0.235015 0.231626,0.640643 z m -0.57511,0.425966 q 0.06327,-0.07683 0.09378,-0.180781 0.03051,-0.105079 0.03051,-0.246315 0,-0.151404 -0.03503,-0.257613 -0.03503,-0.106209 -0.09152,-0.171743 -0.05763,-0.06779 -0.133326,-0.0983 -0.07457,-0.03051 -0.155924,-0.03051 -0.08248,0 -0.155923,0.02937 -0.07231,0.02938 -0.133327,0.09717 -0.05649,0.06327 -0.09265,0.175132 -0.03503,0.110728 -0.03503,0.257614 0,0.150274 0.03389,0.256483 0.03503,0.105079 0.09152,0.171742 0.05649,0.06666 0.132197,0.0983 0.0757,0.03164 0.159313,0.03164 0.08361,0 0.159314,-0.03164 0.0757,-0.03277 0.132196,-0.10056 z"
       id="path6576"
       style="font-weight:bold;font-size:3.88056px;line-height:1.25;font-family:'ヒラギノ丸ゴシック ProN';-inkscape-font-specification:'ヒラギノ丸ゴシック ProN Bold';stroke-width:0.157772" />
  </g>
</svg>
