<?xml version="1.0" encoding="UTF-8" standalone="no"?>
<!-- Created with Inkscape (http://www.inkscape.org/) -->

<svg
   width="2.2430012mm"
   height="1.59516mm"
   viewBox="0 0 2.2430014 1.59516"
   version="1.1"
   id="svg5"
   inkscape:version="1.1.2 (b8e25be8, 2022-02-05)"
   xmlns:inkscape="http://www.inkscape.org/namespaces/inkscape"
   xmlns:sodipodi="http://sodipodi.sourceforge.net/DTD/sodipodi-0.dtd"
   xmlns="http://www.w3.org/2000/svg"
   xmlns:svg="http://www.w3.org/2000/svg">
  <sodipodi:namedview
     id="namedview7"
     pagecolor="#505050"
     bordercolor="#eeeeee"
     borderopacity="1"
     inkscape:pageshadow="0"
     inkscape:pageopacity="0"
     inkscape:pagecheckerboard="0"
     inkscape:document-units="px"
     showgrid="false"
     fit-margin-top="0"
     fit-margin-left="0"
     fit-margin-right="0"
     fit-margin-bottom="0"
     inkscape:zoom="10.023761"
     inkscape:cx="3.242296"
     inkscape:cy="15.263732"
     inkscape:window-width="1440"
     inkscape:window-height="900"
     inkscape:window-x="0"
     inkscape:window-y="0"
     inkscape:window-maximized="0"
     inkscape:current-layer="layer1"
     inkscape:object-paths="false"
     inkscape:snap-global="false" />
  <defs
     id="defs2" />
  <g
     inkscape:label="Layer 1"
     inkscape:groupmode="layer"
     id="layer1"
     transform="translate(-156.89346,-101.18469)">
    <path
       d="m 163.1959,104.39259 q 0.0507,0.0434 0.0806,0.10126 0.0299,0.0579 0.0299,0.15391 0,0.10843 -0.0434,0.20251 -0.0423,0.0941 -0.13117,0.16125 -0.0867,0.0651 -0.20458,0.10021 -0.11683,0.0341 -0.28413,0.0341 -0.19116,0 -0.32859,-0.0301 -0.13642,-0.0299 -0.22215,-0.0672 v -0.33787 h 0.0404 q 0.0889,0.0537 0.21181,0.093 0.124,0.0393 0.2263,0.0393 0.06,0 0.13012,-0.0105 0.0701,-0.0105 0.11875,-0.0434 0.0381,-0.0259 0.061,-0.0621 0.0227,-0.0373 0.0227,-0.10651 0,-0.0672 -0.0309,-0.10336 -0.031,-0.0373 -0.0817,-0.0526 -0.0507,-0.0157 -0.1219,-0.0175 -0.0713,-0.002 -0.13222,-0.002 h -0.0846 v -0.27484 h 0.0878 q 0.0806,0 0.14254,-0.005 0.0621,-0.005 0.10546,-0.0238 0.0455,-0.0196 0.0682,-0.0518 0.0227,-0.0331 0.0227,-0.096 0,-0.0465 -0.0238,-0.0743 -0.0238,-0.0289 -0.0598,-0.0455 -0.0404,-0.0185 -0.0951,-0.0248 -0.0547,-0.005 -0.0941,-0.005 -0.0971,0 -0.21078,0.0341 -0.11368,0.0331 -0.2201,0.096 h -0.0381 v -0.33375 q 0.0848,-0.0341 0.23044,-0.0651 0.14569,-0.032 0.2955,-0.032 0.14568,0 0.25522,0.0259 0.10948,0.0248 0.18082,0.0672 0.0848,0.0505 0.12609,0.12295 0.0414,0.0724 0.0414,0.16947 0,0.12819 -0.0796,0.22939 -0.0796,0.10021 -0.20977,0.12819 v 0.014 q 0.0526,0.007 0.11158,0.0289 0.0589,0.0217 0.10739,0.0631 z"
       id="path6454"
       style="font-weight:bold;font-size:3.88056px;line-height:1.25;font-family:'ヒラギノ丸ゴシック ProN';-inkscape-font-specification:'ヒラギノ丸ゴシック ProN Bold';stroke-width:0.144279" />
    <path
       d="m 158.344,102.77985 h -0.39638 l -0.67706,-1.09487 v 1.09487 h -0.3771 v -1.59516 h 0.49173 l 0.58171,0.91381 v -0.91381 h 0.3771 z"
       id="path6450"
       style="font-weight:bold;font-size:3.88056px;line-height:1.25;font-family:'ヒラギノ丸ゴシック ProN';-inkscape-font-specification:'ヒラギノ丸ゴシック ProN Bold';stroke-width:0.149591" />
    <text
       xml:space="preserve"
       style="font-weight:bold;font-size:1.15713px;line-height:1.25;font-family:'ヒラギノ丸ゴシック ProN';-inkscape-font-specification:'ヒラギノ丸ゴシック ProN Bold';stroke-width:0.0788946"
       x="158.37144"
       y="102.77985"
       id="text6781"><tspan
         sodipodi:role="line"
         id="tspan6779"
         style="stroke-width:0.0788946"
         x="158.37144"
         y="102.77985">2</tspan></text>
  </g>
</svg>
