<?xml version="1.0" encoding="UTF-8" standalone="no"?>
<!-- Created with Inkscape (http://www.inkscape.org/) -->

<svg
   width="2.2429998mm"
   height="1.5951599mm"
   viewBox="0 0 2.243 1.5951599"
   version="1.1"
   id="svg5"
   inkscape:version="1.1.2 (b8e25be8, 2022-02-05)"
   xmlns:inkscape="http://www.inkscape.org/namespaces/inkscape"
   xmlns:sodipodi="http://sodipodi.sourceforge.net/DTD/sodipodi-0.dtd"
   xmlns="http://www.w3.org/2000/svg"
   xmlns:svg="http://www.w3.org/2000/svg">
  <sodipodi:namedview
     id="namedview7"
     pagecolor="#505050"
     bordercolor="#eeeeee"
     borderopacity="1"
     inkscape:pageshadow="0"
     inkscape:pageopacity="0"
     inkscape:pagecheckerboard="0"
     inkscape:document-units="px"
     showgrid="false"
     fit-margin-top="0"
     fit-margin-left="0"
     fit-margin-right="0"
     fit-margin-bottom="0"
     inkscape:zoom="15.013517"
     inkscape:cx="-1.8982894"
     inkscape:cy="5.1953183"
     inkscape:window-width="1440"
     inkscape:window-height="900"
     inkscape:window-x="0"
     inkscape:window-y="0"
     inkscape:window-maximized="0"
     inkscape:current-layer="layer1"
     inkscape:object-paths="false"
     inkscape:snap-global="false" />
  <defs
     id="defs2" />
  <g
     inkscape:label="Layer 1"
     inkscape:groupmode="layer"
     id="layer1"
     transform="translate(-156.89346,-101.18469)">
    <path
       d="m 160.57572,102.53813 q 0.0269,0.0231 0.0428,0.0538 0.0159,0.0308 0.0159,0.0818 0,0.0576 -0.0231,0.10763 -0.0225,0.05 -0.0697,0.0857 -0.0461,0.0346 -0.10873,0.0533 -0.0621,0.0181 -0.15102,0.0181 -0.1016,0 -0.17464,-0.016 -0.0725,-0.0159 -0.11807,-0.0357 v -0.17957 h 0.0215 q 0.0473,0.0285 0.11258,0.0494 0.0659,0.0209 0.12027,0.0209 0.0319,0 0.0692,-0.006 0.0373,-0.006 0.0631,-0.0231 0.0203,-0.0138 0.0324,-0.033 0.0121,-0.0198 0.0121,-0.0566 0,-0.0357 -0.0164,-0.0549 -0.0165,-0.0198 -0.0434,-0.028 -0.0269,-0.008 -0.0648,-0.009 -0.0379,-0.001 -0.0703,-0.001 h -0.045 v -0.14607 h 0.0467 q 0.0428,0 0.0758,-0.003 0.033,-0.003 0.056,-0.0126 0.0242,-0.0104 0.0363,-0.0275 0.0121,-0.0176 0.0121,-0.051 0,-0.0247 -0.0127,-0.0395 -0.0127,-0.0154 -0.0318,-0.0242 -0.0215,-0.01 -0.0505,-0.0132 -0.0291,-0.003 -0.05,-0.003 -0.0516,0 -0.11203,0.0181 -0.0604,0.0176 -0.11698,0.051 h -0.0203 v -0.17738 q 0.0451,-0.0181 0.12247,-0.0346 0.0774,-0.017 0.15706,-0.017 0.0774,0 0.13565,0.0138 0.0582,0.0132 0.0961,0.0357 0.0451,0.0268 0.067,0.0654 0.022,0.0385 0.022,0.0901 0,0.0681 -0.0423,0.12192 -0.0423,0.0533 -0.1115,0.0681 v 0.007 q 0.028,0.004 0.0593,0.0154 0.0313,0.0115 0.0571,0.0335 z"
       id="path6454"
       style="font-weight:bold;font-size:3.88056px;line-height:1.25;font-family:'ヒラギノ丸ゴシック ProN';-inkscape-font-specification:'ヒラギノ丸ゴシック ProN Bold';stroke-width:0.0766832" />
    <path
       d="m 158.344,102.77985 h -0.39638 l -0.67706,-1.09487 v 1.09487 h -0.3771 v -1.59516 h 0.49173 l 0.58171,0.91381 v -0.91381 h 0.3771 z"
       id="path6450"
       style="font-weight:bold;font-size:3.88056px;line-height:1.25;font-family:'ヒラギノ丸ゴシック ProN';-inkscape-font-specification:'ヒラギノ丸ゴシック ProN Bold';stroke-width:0.149591" />
    <text
       xml:space="preserve"
       style="font-weight:bold;font-size:1.15713px;line-height:1.25;font-family:'ヒラギノ丸ゴシック ProN';-inkscape-font-specification:'ヒラギノ丸ゴシック ProN Bold';stroke-width:0.0788946"
       x="160.96527"
       y="102.17917"
       id="text6781"><tspan
         sodipodi:role="line"
         id="tspan6779"
         style="stroke-width:0.0788946"
         x="160.96527"
         y="102.17917">2</tspan></text>
    <text
       xml:space="preserve"
       style="font-weight:bold;font-size:0.990627px;line-height:1.25;font-family:'ヒラギノ丸ゴシック ProN';-inkscape-font-specification:'ヒラギノ丸ゴシック ProN Bold';stroke-width:0.0675424"
       x="158.47136"
       y="102.77792"
       id="text7643"><tspan
         sodipodi:role="line"
         id="tspan7641"
         style="stroke-width:0.0675424"
         x="158.47136"
         y="102.77792">4</tspan></text>
  </g>
</svg>
